<svg width="192" height="192" xmlns="http://www.w3.org/2000/svg">
<path style="fill:#000000; stroke:none;" d="M16 0L16 32L0 32L0 144L16 144L16 160L32 160L32 176L176 176L176 160L192 160L192 32L144 32L144 16L128 16L128 0L80 0L80 16L64 16L64 32L32 32L32 0L16 0z" />
<path style="fill:#ffffff; stroke:none;" d="M80 16L80 32L128 32L128 16L80 16M80 48L80 64L64 64L64 80L48 80L48 128L64 128L64 144L80 144L80 160L128 160L128 144L144 144L144 128L160 128L160 80L144 80L144 64L128 64L128 48L80 48M16 64L16 80L32 80L32 64L16 64z" />
<path style="fill:#000000; stroke:none;" d="M80 64L80 80L64 80L64 128L80 128L80 144L128 144L128 128L144 128L144 80L128 80L128 64L80 64z" />
<path style="fill:#ffffff; stroke:none;" d="M96 80L96 96L80 96L80 112L96 112L96 128L112 128L112 112L128 112L128 96L112 96L112 80L96 80z" />
</svg>