<svg width="192" height="192" xmlns="http://www.w3.org/2000/svg">
<path style="fill:#000000; stroke:none;" d="M32 64L32 80L16 80L16 96L0 96L0 160L16 160L16 176L48 176L48 160L64 160L64 144L128 144L128 160L144 160L144 176L176 176L176 160L192 160L192 96L176 96L176 80L160 80L160 64L32 64z" />
<path style="fill:#ffffff; stroke:none;" d="M112 80L112 96L128 96L128 80L112 80M32 96L32 112L16 112L16 128L32 128L32 144L48 144L48 128L64 128L64 112L48 112L48 96L32 96M144 112L144 144L176 144L176 112L144 112z" />
</svg>