<svg width="192" height="192" xmlns="http://www.w3.org/2000/svg">
<path style="fill:#000000; stroke:none;" d="M80 48L80 64L64 64L64 80L48 80L48 64L16 64L16 80L0 80L0 128L16 128L16 144L48 144L48 128L80 128L80 160L96 160L96 176L128 176L128 160L144 160L144 112L160 112L160 96L176 96L176 112L192 112L192 80L160 80L160 96L144 96L144 112L128 112L128 96L96 96L96 112L64 112L64 80L80 80L80 64L96 64L96 80L112 80L112 48L80 48z" />
<path style="fill:#ffffff; stroke:none;" d="M16 80L16 128L48 128L48 80L16 80M96 112L96 160L128 160L128 112L96 112z" />
</svg>