<?xml version="1.0" standalone="yes"?>
<svg width="192" height="192">
<path style="fill:#1442ff; stroke:none;" d="M32 32L32 48L48 48L48 64L32 64L32 80L48 80L48 64L64 64L64 80L80 80L80 64L64 64L64 48L80 48L80 32L64 32L64 48L48 48L48 32L32 32M112 32L112 48L128 48L128 64L112 64L112 80L128 80L128 64L144 64L144 80L160 80L160 64L144 64L144 48L160 48L160 32L144 32L144 48L128 48L128 32L112 32M80 96L80 112L64 112L64 144L80 144L80 160L112 160L112 144L128 144L128 112L112 112L112 96L80 96M112 112L112 144L80 144L80 112L112 112z"/>
</svg>
