<?xml version="1.0" standalone="yes"?>
<svg width="192" height="192">
<path style="fill:#cb6dff; stroke:none;" d="M80 0L80 16L64 16L64 32L48 32L48 48L32 48L32 64L16 64L16 80L0 80L0 112L16 112L16 128L32 128L32 144L48 144L48 160L64 160L64 176L80 176L80 192L112 192L112 176L128 176L128 160L144 160L144 144L160 144L160 128L176 128L176 112L192 112L192 80L176 80L176 64L160 64L160 48L144 48L144 32L128 32L128 16L112 16L112 0L80 0z"/>
<path style="fill:#ffffff; stroke:none;" d="M80 16L80 32L64 32L64 64L32 64L32 80L16 80L16 112L32 112L32 128L64 128L64 160L80 160L80 176L112 176L112 160L128 160L128 128L160 128L160 112L176 112L176 80L160 80L160 64L128 64L128 32L112 32L112 16L80 16z"/>
<path style="fill:#cb6dff; stroke:none;" d="M80 80L80 112L112 112L112 80L80 80z"/>
</svg>
