<svg width="192" height="192" xmlns="http://www.w3.org/2000/svg">
<path style="fill:#8edd07; stroke:none;" d="M64 48L64 64L48 64L48 80L32 80L32 96L48 96L48 80L64 80L64 64L80 64L80 48L64 48M112 48L112 64L128 64L128 80L144 80L144 96L160 96L160 80L144 80L144 64L128 64L128 48L112 48M48 128L48 144L32 144L32 160L48 160L48 144L64 144L64 160L80 160L80 144L112 144L112 160L128 160L128 144L144 144L144 160L160 160L160 144L144 144L144 128L128 128L128 144L112 144L112 128L80 128L80 144L64 144L64 128L48 128z" />
</svg>