<svg width="192" height="192" xmlns="http://www.w3.org/2000/svg">
<path style="fill:#1442ff; stroke:none;" d="M80 0L80 16L64 16L64 32L48 32L48 80L64 80L64 96L48 96L48 112L32 112L32 160L48 160L48 176L64 176L64 192L144 192L144 176L160 176L160 160L176 160L176 112L160 112L160 96L144 96L144 80L160 80L160 32L144 32L144 16L128 16L128 0L80 0z" />
<path style="fill:#ffffff; stroke:none;" d="M80 16L80 32L64 32L64 80L80 80L80 96L64 96L64 112L48 112L48 160L64 160L64 176L144 176L144 160L160 160L160 112L144 112L144 96L128 96L128 80L144 80L144 32L128 32L128 16L80 16z" />
<path style="fill:#1442ff; stroke:none;" d="M80 48L80 64L96 64L96 48L80 48M112 48L112 64L128 64L128 48L112 48z" />
</svg>