<svg width="192" height="192" xmlns="http://www.w3.org/2000/svg">
<path style="fill:#f9af14; stroke:none;" d="M32 0L32 32L16 32L16 48L0 48L0 64L16 64L16 80L32 80L32 112L48 112L48 80L64 80L64 64L80 64L80 48L64 48L64 32L48 32L48 0L32 0z" />
<path style="fill:#ffffff; stroke:none;" d="M32 32L32 48L16 48L16 64L32 64L32 80L48 80L48 64L64 64L64 48L48 48L48 32L32 32z" />
<path style="fill:#f9af14; stroke:none;" d="M144 80L144 112L128 112L128 128L112 128L112 144L128 144L128 160L144 160L144 192L160 192L160 160L176 160L176 144L192 144L192 128L176 128L176 112L160 112L160 80L144 80z" />
<path style="fill:#ffffff; stroke:none;" d="M144 112L144 128L128 128L128 144L144 144L144 160L160 160L160 144L176 144L176 128L160 128L160 112L144 112z" />
</svg>