<svg xmlns:ns0="http://www.w3.org/2000/svg" width="192" height="192" xmlns="http://www.w3.org/2000/svg">
<path style="fill:#ff1500; stroke:none;" d="M48 0L48 16L16 16L16 32L0 32L0 64L16 64L16 32L48 32L48 16L128 16L128 32L160 32L160 64L176 64L176 128L160 128L160 160L128 160L128 176L64 176L64 160L48 160L48 96L64 96L64 80L128 80L128 128L112 128L112 144L80 144L80 112L112 112L112 96L80 96L80 112L64 112L64 144L80 144L80 160L112 160L112 144L128 144L128 128L144 128L144 80L128 80L128 64L64 64L64 80L48 80L48 96L32 96L32 160L48 160L48 176L64 176L64 192L128 192L128 176L160 176L160 160L176 160L176 128L192 128L192 64L176 64L176 32L160 32L160 16L128 16L128 0L48 0z" />
</svg>