<?xml version="1.0" standalone="yes"?>
<svg width="192" height="192">
<path style="fill:#1442ff; stroke:none;" d="M48 0L48 16L32 16L32 32L16 32L16 48L0 48L0 144L16 144L16 160L32 160L32 176L48 176L48 192L144 192L144 176L160 176L160 160L176 160L176 144L192 144L192 48L176 48L176 32L160 32L160 16L144 16L144 0L48 0z"/>
<path style="fill:#ffffff; stroke:none;" d="M48 16L48 32L32 32L32 48L16 48L16 144L32 144L32 160L48 160L48 176L64 176L64 32L128 32L128 48L80 48L80 96L128 96L128 112L80 112L80 176L144 176L144 160L160 160L160 144L176 144L176 48L160 48L160 32L144 32L144 16L48 16z"/>
<path style="fill:#1442ff; stroke:none;" d="M128 48L128 96L144 96L144 48L128 48z"/>
</svg>
