<?xml version="1.0" standalone="yes"?>
<svg width="192" height="192">
<path style="fill:#1442ff; stroke:none;" d="M0 0L0 16L32 16L32 0L0 0M80 0L80 16L112 16L112 0L80 0M160 0L160 16L192 16L192 0L160 0M32 48L32 64L64 64L64 48L32 48M128 48L128 64L160 64L160 48L128 48M0 96L0 112L32 112L32 96L0 96M80 96L80 112L112 112L112 96L80 96M160 96L160 112L192 112L192 96L160 96M32 144L32 160L64 160L64 144L32 144M128 144L128 160L160 160L160 144L128 144M0 176L0 192L32 192L32 176L0 176M80 176L80 192L112 192L112 176L80 176M160 176L160 192L192 192L192 176L160 176z"/>
</svg>
