<?xml version="1.0" standalone="yes"?>
<svg width="192" height="192">
<path style="fill:#1442ff; stroke:none;" d="M48 0L48 16L64 16L64 32L16 32L16 48L0 48L0 144L16 144L16 160L32 160L32 192L48 192L48 160L144 160L144 192L160 192L160 160L176 160L176 144L192 144L192 48L176 48L176 32L128 32L128 16L144 16L144 0L128 0L128 16L112 16L112 32L80 32L80 16L64 16L64 0L48 0z"/>
<path style="fill:#ffffff; stroke:none;" d="M16 48L16 144L176 144L176 48L16 48z"/>
<path style="fill:#1442ff; stroke:none;" d="M48 64L48 128L128 128L128 64L48 64M144 64L144 80L160 80L160 64L144 64M144 96L144 112L160 112L160 96L144 96z"/>
</svg>
