<?xml version="1.0" standalone="yes"?>
<svg width="192" height="192">
<path style="fill:#f9af14; stroke:none;" d="M0 16L0 160L16 160L16 32L48 32L48 48L64 48L64 144L80 144L80 32L128 32L128 48L144 48L144 64L128 64L128 128L112 128L112 144L96 144L96 160L112 160L112 144L128 144L128 160L144 160L144 176L176 176L176 160L192 160L192 144L176 144L176 160L144 160L144 128L160 128L160 112L176 112L176 96L192 96L192 64L176 64L176 48L144 48L144 32L128 32L128 16L80 16L80 32L48 32L48 16L0 16M176 64L176 96L160 96L160 112L144 112L144 64L176 64z"/>
</svg>
