<?xml version="1.0" standalone="yes"?>
<svg width="192" height="192">
<path style="fill:#ff1500; stroke:none;" d="M48 0L48 16L32 16L32 32L16 32L16 96L32 96L32 112L48 112L48 128L64 128L64 144L80 144L80 160L96 160L96 192L112 192L112 160L128 160L128 144L144 144L144 128L160 128L160 112L176 112L176 96L192 96L192 32L176 32L176 16L160 16L160 0L128 0L128 16L112 16L112 32L96 32L96 16L80 16L80 0L48 0z"/>
<path style="fill:#ffffff; stroke:none;" d="M144 32L144 48L160 48L160 80L144 80L144 96L160 96L160 80L176 80L176 48L160 48L160 32L144 32M112 112L112 128L128 128L128 112L112 112z"/>
</svg>
