<?xml version="1.0" standalone="yes"?>
<svg width="192" height="192">
<path style="fill:#f9af14; stroke:none;" d="M0 32L0 48L16 48L16 96L32 96L32 192L48 192L48 96L64 96L64 64L80 64L80 48L96 48L96 64L112 64L112 80L128 80L128 112L144 112L144 160L128 160L128 176L112 176L112 192L128 192L128 176L144 176L144 160L160 160L160 112L144 112L144 96L176 96L176 80L192 80L192 48L176 48L176 32L144 32L144 48L128 48L128 64L112 64L112 48L96 48L96 32L80 32L80 48L64 48L64 64L48 64L48 96L32 96L32 32L0 32M176 48L176 80L144 80L144 48L176 48z"/>
</svg>
