<?xml version="1.0" standalone="yes"?>
<svg width="192" height="192">
<path style="fill:#ff1500; stroke:none;" d="M80 0L80 16L64 16L64 32L48 32L48 64L32 64L32 80L16 80L16 176L192 176L192 80L176 80L176 64L160 64L160 32L144 32L144 16L128 16L128 0L80 0z"/>
<path style="fill:#ffffff; stroke:none;" d="M80 16L80 32L64 32L64 64L144 64L144 32L128 32L128 16L80 16M48 96L48 112L64 112L64 128L48 128L48 144L64 144L64 160L80 160L80 144L96 144L96 160L112 160L112 144L128 144L128 160L144 160L144 144L160 144L160 128L144 128L144 112L160 112L160 96L144 96L144 112L128 112L128 96L112 96L112 112L96 112L96 96L80 96L80 112L64 112L64 96L48 96z"/>
<path style="fill:#ff1500; stroke:none;" d="M80 112L80 128L64 128L64 144L80 144L80 128L96 128L96 144L112 144L112 128L128 128L128 144L144 144L144 128L128 128L128 112L112 112L112 128L96 128L96 112L80 112z"/>
</svg>
