<?xml version="1.0" standalone="yes"?>
<svg width="192" height="192">
<path style="fill:#f9af14; stroke:none;" d="M64 0L64 16L48 16L48 64L64 64L64 80L112 80L112 64L128 64L128 16L112 16L112 0L64 0z"/>
<path style="fill:#ffffff; stroke:none;" d="M64 16L64 64L112 64L112 16L64 16z"/>
<path style="fill:#f9af14; stroke:none;" d="M16 96L16 112L32 112L32 160L48 160L48 192L64 192L64 160L80 160L80 192L96 192L96 160L112 160L112 192L128 192L128 160L144 160L144 112L160 112L160 96L16 96z"/>
<path style="fill:#ffffff; stroke:none;" d="M48 112L48 128L64 128L64 144L48 144L48 160L64 160L64 144L80 144L80 160L96 160L96 144L112 144L112 160L128 160L128 144L112 144L112 128L128 128L128 112L112 112L112 128L96 128L96 112L80 112L80 128L64 128L64 112L48 112z"/>
<path style="fill:#f9af14; stroke:none;" d="M80 128L80 144L96 144L96 128L80 128z"/>
</svg>
