<?xml version="1.0" standalone="yes"?>
<svg width="192" height="192">
<path style="fill:#000000; stroke:none;" d="M64 0L64 32L32 32L32 48L48 48L48 64L64 64L64 80L80 80L80 96L96 96L96 80L112 80L112 64L128 64L128 48L144 48L144 32L112 32L112 0L96 0L96 48L112 48L112 64L96 64L96 80L80 80L80 64L64 64L64 48L80 48L80 0L64 0M32 112L32 192L144 192L144 112L32 112z"/>
<path style="fill:#ffffff; stroke:none;" d="M64 128L64 144L48 144L48 176L80 176L80 160L96 160L96 176L128 176L128 144L112 144L112 128L64 128z"/>
<path style="fill:#000000; stroke:none;" d="M64 144L64 160L80 160L80 144L64 144M96 144L96 160L112 160L112 144L96 144z"/>
</svg>
