<?xml version="1.0" standalone="yes"?>
<svg width="192" height="192">
<path style="fill:#8edd07; stroke:none;" d="M32 0L32 16L16 16L16 32L0 32L0 80L16 80L16 112L48 112L48 128L64 128L64 144L112 144L112 128L128 128L128 144L144 144L144 160L160 160L160 176L176 176L176 192L192 192L192 176L176 176L176 160L160 160L160 144L144 144L144 128L128 128L128 112L144 112L144 64L128 64L128 48L112 48L112 16L80 16L80 0L32 0z"/>
<path style="fill:#ffffff; stroke:none;" d="M32 16L32 32L16 32L16 48L32 48L32 64L16 64L16 80L32 80L32 96L48 96L48 112L64 112L64 128L80 128L80 112L96 112L96 128L112 128L112 112L128 112L128 96L112 96L112 80L128 80L128 64L112 64L112 48L96 48L96 32L80 32L80 16L64 16L64 32L48 32L48 16L32 16z"/>
<path style="fill:#8edd07; stroke:none;" d="M32 32L32 48L48 48L48 64L32 64L32 80L48 80L48 96L64 96L64 112L80 112L80 96L96 96L96 112L112 112L112 96L96 96L96 80L112 80L112 64L96 64L96 48L80 48L80 32L64 32L64 48L48 48L48 32L32 32z"/>
<path style="fill:#ffffff; stroke:none;" d="M64 48L64 64L48 64L48 80L64 80L64 96L80 96L80 80L96 80L96 64L80 64L80 48L64 48z"/>
<path style="fill:#8edd07; stroke:none;" d="M64 64L64 80L80 80L80 64L64 64M0 160L0 192L32 192L32 160L0 160z"/>
</svg>
