<?xml version="1.0" standalone="yes"?>
<svg width="192" height="192">
<path style="fill:#cb6dff; stroke:none;" d="M32 0L32 16L0 16L0 32L192 32L192 16L160 16L160 0L32 0M16 48L16 160L64 160L64 144L80 144L80 112L64 112L64 96L80 96L80 64L64 64L64 48L16 48M112 48L112 160L128 160L128 128L144 128L144 144L160 144L160 160L176 160L176 144L160 144L160 128L144 128L144 112L128 112L128 96L144 96L144 80L160 80L160 64L176 64L176 48L160 48L160 64L144 64L144 80L128 80L128 48L112 48M64 64L64 96L32 96L32 64L64 64M64 112L64 144L32 144L32 112L64 112M0 176L0 192L192 192L192 176L0 176z"/>
</svg>
