<?xml version="1.0" standalone="yes"?>
<svg width="192" height="192">
<path style="fill:#f9af14; stroke:none;" d="M16 0L16 144L32 144L32 160L64 160L64 176L80 176L80 192L128 192L128 176L144 176L144 160L176 160L176 144L192 144L192 0L144 0L144 16L128 16L128 32L112 32L112 48L96 48L96 32L80 32L80 16L64 16L64 0L16 0z"/>
<path style="fill:#ffffff; stroke:none;" d="M144 16L144 32L128 32L128 48L112 48L112 128L128 128L128 144L112 144L112 160L96 160L96 128L80 128L80 112L32 112L32 144L64 144L64 160L80 160L80 176L128 176L128 160L144 160L144 144L176 144L176 112L144 112L144 96L176 96L176 16L144 16z"/>
<path style="fill:#f9af14; stroke:none;" d="M128 112L128 128L144 128L144 112L128 112z"/>
</svg>
