<?xml version="1.0" standalone="yes"?>
<svg width="192" height="192">
<path style="fill:#000000; stroke:none;" d="M64 16L64 32L48 32L48 80L64 80L64 96L48 96L48 128L32 128L32 112L0 112L0 176L32 176L32 160L48 160L48 192L192 192L192 96L176 96L176 80L192 80L192 32L176 32L176 16L128 16L128 32L112 32L112 16L64 16z"/>
<path style="fill:#ffffff; stroke:none;" d="M64 32L64 80L112 80L112 96L128 96L128 80L176 80L176 32L128 32L128 80L112 80L112 32L64 32z"/>
<path style="fill:#000000; stroke:none;" d="M80 48L80 64L96 64L96 48L80 48M144 48L144 64L160 64L160 48L144 48z"/>
<path style="fill:#ffffff; stroke:none;" d="M64 112L64 128L48 128L48 160L64 160L64 176L176 176L176 112L64 112M16 128L16 160L32 160L32 128L16 128z"/>
<path style="fill:#000000; stroke:none;" d="M80 128L80 160L160 160L160 128L80 128z"/>
</svg>
