<?xml version="1.0" standalone="yes"?>
<svg width="192" height="192">
<path style="fill:#8edd07; stroke:none;" d="M16 32L16 48L0 48L0 64L32 64L32 96L48 96L48 64L80 64L80 96L96 96L96 64L128 64L128 96L144 96L144 64L160 64L160 48L176 48L176 32L160 32L160 48L144 48L144 64L128 64L128 32L112 32L112 48L96 48L96 64L80 64L80 32L64 32L64 48L48 48L48 64L32 64L32 32L16 32M176 64L176 96L192 96L192 64L176 64M16 128L16 144L0 144L0 160L32 160L32 192L48 192L48 160L80 160L80 192L96 192L96 160L128 160L128 192L144 192L144 160L160 160L160 144L176 144L176 128L160 128L160 144L144 144L144 160L128 160L128 128L112 128L112 144L96 144L96 160L80 160L80 128L64 128L64 144L48 144L48 160L32 160L32 128L16 128M176 160L176 192L192 192L192 160L176 160z"/>
</svg>
