<?xml version="1.0" standalone="yes"?>
<svg width="192" height="192">
<path style="fill:#1442ff; stroke:none;" d="M128 0L128 16L112 16L112 32L96 32L96 48L80 48L80 80L64 80L64 112L32 112L32 128L48 128L48 160L64 160L64 176L0 176L0 192L96 192L96 176L80 176L80 160L64 160L64 128L144 128L144 160L128 160L128 176L112 176L112 192L192 192L192 176L144 176L144 160L160 160L160 128L176 128L176 112L144 112L144 80L128 80L128 48L112 48L112 32L144 32L144 48L192 48L192 0L128 0M112 48L112 80L96 80L96 48L112 48M128 96L128 112L80 112L80 96L128 96z"/>
</svg>
