<?xml version="1.0" standalone="yes"?>
<svg width="192" height="192">
<path style="fill:#000000; stroke:none;" d="M80 0L80 16L64 16L64 64L80 64L80 80L128 80L128 64L144 64L144 16L128 16L128 0L80 0z"/>
<path style="fill:#ffffff; stroke:none;" d="M80 16L80 32L96 32L96 16L80 16M112 16L112 32L128 32L128 16L112 16M80 48L80 64L96 64L96 48L80 48M112 48L112 64L128 64L128 48L112 48z"/>
<path style="fill:#000000; stroke:none;" d="M80 96L80 160L96 160L96 176L112 176L112 192L144 192L144 176L112 176L112 160L128 160L128 96L80 96z"/>
</svg>
