<?xml version="1.0" standalone="yes"?>
<svg width="192" height="192">
<path style="fill:#1442ff; stroke:none;" d="M64 0L64 16L32 16L32 32L16 32L16 48L0 48L0 80L16 80L16 96L48 96L48 80L64 80L64 48L48 48L48 32L64 32L64 16L128 16L128 32L160 32L160 48L176 48L176 80L192 80L192 48L176 48L176 32L160 32L160 16L128 16L128 0L64 0M48 48L48 80L16 80L16 48L48 48M144 96L144 112L128 112L128 144L144 144L144 160L128 160L128 176L64 176L64 160L32 160L32 144L16 144L16 112L0 112L0 144L16 144L16 160L32 160L32 176L64 176L64 192L128 192L128 176L160 176L160 160L176 160L176 144L192 144L192 112L176 112L176 96L144 96M176 112L176 144L144 144L144 112L176 112z"/>
</svg>
