<?xml version="1.0" standalone="yes"?>
<svg width="192" height="192">
<path style="fill:#000000; stroke:none;" d="M32 0L32 16L16 16L16 32L0 32L0 64L32 64L32 80L16 80L16 96L0 96L0 176L16 176L16 192L176 192L176 176L192 176L192 96L176 96L176 80L160 80L160 64L192 64L192 32L176 32L176 16L160 16L160 0L32 0z"/>
<path style="fill:#ffffff; stroke:none;" d="M32 16L32 32L16 32L16 48L64 48L64 64L48 64L48 80L32 80L32 96L16 96L16 176L176 176L176 96L160 96L160 80L144 80L144 64L128 64L128 48L176 48L176 32L160 32L160 16L32 16z"/>
<path style="fill:#000000; stroke:none;" d="M64 32L64 48L128 48L128 32L64 32M64 96L64 160L128 160L128 96L64 96z"/>
</svg>
