<?xml version="1.0" standalone="yes"?>
<svg width="192" height="192">
<path style="fill:#ff1500; stroke:none;" d="M96 16L96 32L144 32L144 48L128 48L128 64L112 64L112 80L128 80L128 96L144 96L144 112L96 112L96 128L176 128L176 112L160 112L160 96L144 96L144 80L128 80L128 64L144 64L144 48L160 48L160 32L176 32L176 16L96 16M16 64L16 80L32 80L32 96L48 96L48 112L64 112L64 128L48 128L48 144L32 144L32 160L16 160L16 176L96 176L96 160L48 160L48 144L64 144L64 128L80 128L80 112L64 112L64 96L48 96L48 80L96 80L96 64L16 64z"/>
</svg>
