<?xml version="1.0" standalone="yes"?>
<svg width="192" height="192">
<path style="fill:#ff1500; stroke:none;" d="M32 16L32 32L16 32L16 48L0 48L0 112L16 112L16 128L32 128L32 144L48 144L48 160L64 160L64 176L80 176L80 144L64 144L64 112L48 112L48 96L64 96L64 80L80 80L80 64L64 64L64 48L80 48L80 32L64 32L64 16L32 16M128 16L128 32L112 32L112 64L128 64L128 80L112 80L112 96L96 96L96 112L112 112L112 128L128 128L128 144L112 144L112 160L96 160L96 192L112 192L112 176L128 176L128 160L144 160L144 144L160 144L160 128L176 128L176 112L192 112L192 48L176 48L176 32L160 32L160 16L128 16z"/>
</svg>
