<?xml version="1.0" standalone="yes"?>
<svg width="192" height="192">
<path style="fill:#1442ff; stroke:none;" d="M16 0L16 192L160 192L160 0L16 0z"/>
<path style="fill:#ffffff; stroke:none;" d="M32 16L32 176L48 176L48 128L64 128L64 176L80 176L80 128L96 128L96 176L112 176L112 128L128 128L128 176L144 176L144 16L32 16z"/>
<path style="fill:#1442ff; stroke:none;" d="M48 32L48 48L64 48L64 32L48 32M80 32L80 48L96 48L96 32L80 32M112 32L112 48L128 48L128 32L112 32M48 64L48 80L64 80L64 64L48 64M80 64L80 80L96 80L96 64L80 64M112 64L112 80L128 80L128 64L112 64M48 96L48 112L64 112L64 96L48 96M80 96L80 112L96 112L96 96L80 96M112 96L112 112L128 112L128 96L112 96z"/>
</svg>
