<?xml version="1.0" standalone="yes"?>
<svg width="192" height="192">
<path style="fill:#ffcc00; stroke:none;" d="M0 0L0 64L16 64L16 32L32 32L32 48L48 48L48 32L32 32L32 16L16 16L16 0L0 0M176 0L176 16L160 16L160 32L144 32L144 48L160 48L160 32L176 32L176 64L192 64L192 0L176 0M64 32L64 48L128 48L128 32L64 32M48 80L48 96L64 96L64 80L48 80M128 80L128 96L144 96L144 80L128 80M0 112L0 128L64 128L64 112L0 112M128 112L128 128L192 128L192 112L128 112M32 144L32 160L48 160L48 176L80 176L80 160L112 160L112 176L144 176L144 160L160 160L160 144L144 144L144 160L112 160L112 144L80 144L80 160L48 160L48 144L32 144z"/>
</svg>
