<?xml version="1.0" standalone="yes"?>
<svg width="192" height="192">
<path style="fill:#ff1500; stroke:none;" d="M16 0L16 80L32 80L32 48L64 48L64 112L80 112L80 96L96 96L96 112L112 112L112 160L160 160L160 176L16 176L16 192L192 192L192 176L176 176L176 160L192 160L192 144L176 144L176 128L192 128L192 112L160 112L160 144L128 144L128 128L144 128L144 112L128 112L128 96L160 96L160 80L112 80L112 32L32 32L32 16L64 16L64 0L16 0M96 0L96 16L192 16L192 0L96 0M96 48L96 64L80 64L80 48L96 48M112 80L112 96L96 96L96 80L112 80z"/>
</svg>
