<?xml version="1.0" standalone="yes"?>
<svg width="192" height="192">
<path style="fill:#000000; stroke:none;" d="M64 0L64 32L32 32L32 48L48 48L48 64L64 64L64 80L80 80L80 96L96 96L96 80L112 80L112 64L128 64L128 48L144 48L144 32L112 32L112 0L96 0L96 48L112 48L112 64L96 64L96 80L80 80L80 64L64 64L64 48L80 48L80 0L64 0M0 112L0 192L16 192L16 160L32 160L32 144L16 144L16 128L48 128L48 112L0 112M80 112L80 128L64 128L64 192L80 192L80 176L96 176L96 192L112 192L112 128L96 128L96 112L80 112M128 112L128 144L144 144L144 160L128 160L128 192L144 192L144 160L160 160L160 192L176 192L176 160L160 160L160 144L176 144L176 112L160 112L160 144L144 144L144 112L128 112z"/>
<path style="fill:#ffffff; stroke:none;" d="M80 128L80 160L96 160L96 128L80 128z"/>
</svg>
