<?xml version="1.0" standalone="yes"?>
<svg width="192" height="192">
<path style="fill:#f9af14; stroke:none;" d="M64 16L64 32L48 32L48 48L64 48L64 80L48 80L48 96L64 96L64 112L48 112L48 128L64 128L64 144L48 144L48 160L64 160L64 176L128 176L128 160L144 160L144 144L128 144L128 128L144 128L144 112L128 112L128 96L144 96L144 80L128 80L128 48L144 48L144 32L128 32L128 16L64 16z"/>
<path style="fill:#ffffff; stroke:none;" d="M64 32L64 48L128 48L128 32L64 32M64 80L64 96L80 96L80 112L64 112L64 128L80 128L80 144L64 144L64 160L128 160L128 144L112 144L112 128L128 128L128 112L112 112L112 96L128 96L128 80L64 80z"/>
</svg>
