<?xml version="1.0" standalone="yes"?>
<svg width="192" height="192">
<path style="fill:#1442ff; stroke:none;" d="M112 48L112 64L96 64L96 80L80 80L80 64L32 64L32 80L16 80L16 96L0 96L0 128L16 128L16 144L32 144L32 160L80 160L80 144L112 144L112 160L160 160L160 144L176 144L176 128L192 128L192 80L176 80L176 64L160 64L160 48L112 48z"/>
<path style="fill:#ffffff; stroke:none;" d="M112 64L112 80L96 80L96 96L80 96L80 80L32 80L32 96L16 96L16 128L32 128L32 144L80 144L80 128L112 128L112 144L160 144L160 128L176 128L176 80L160 80L160 64L112 64z"/>
</svg>
