<?xml version="1.0" standalone="yes"?>
<svg width="192" height="192">
<path style="fill:#8edd07; stroke:none;" d="M0 32L0 144L16 144L16 160L32 160L32 176L112 176L112 160L128 160L128 144L144 144L144 128L160 128L160 112L176 112L176 96L192 96L192 64L176 64L176 48L144 48L144 32L0 32z"/>
<path style="fill:#ffffff; stroke:none;" d="M48 64L48 80L32 80L32 96L48 96L48 112L32 112L32 128L48 128L48 144L64 144L64 128L80 128L80 144L96 144L96 128L112 128L112 112L96 112L96 96L112 96L112 80L96 80L96 64L80 64L80 80L64 80L64 64L48 64z"/>
<path style="fill:#8edd07; stroke:none;" d="M176 64L176 96L160 96L160 112L144 112L144 64L176 64M48 80L48 96L64 96L64 112L48 112L48 128L64 128L64 112L80 112L80 128L96 128L96 112L80 112L80 96L96 96L96 80L80 80L80 96L64 96L64 80L48 80z"/>
</svg>
