<?xml version="1.0" standalone="yes"?>
<svg width="192" height="192">
<path style="fill:#000000; stroke:none;" d="M80 0L80 16L48 16L48 32L0 32L0 48L192 48L192 32L144 32L144 16L112 16L112 0L80 0M48 64L48 80L32 80L32 144L48 144L48 160L80 160L80 144L96 144L96 112L64 112L64 128L80 128L80 144L48 144L48 80L80 80L80 96L96 96L96 80L80 80L80 64L48 64M128 64L128 80L112 80L112 96L128 96L128 112L144 112L144 144L112 144L112 160L144 160L144 144L160 144L160 112L144 112L144 96L128 96L128 80L160 80L160 64L128 64M0 176L0 192L192 192L192 176L0 176z"/>
</svg>
