<?xml version="1.0" standalone="yes"?>
<svg width="192" height="192">
<path style="fill:#8edd07; stroke:none;" d="M80 0L80 16L64 16L64 32L48 32L48 48L32 48L32 64L48 64L48 48L64 48L64 80L48 80L48 96L32 96L32 112L16 112L16 128L32 128L32 112L80 112L80 128L48 128L48 176L64 176L64 192L112 192L112 176L128 176L128 128L96 128L96 112L144 112L144 128L160 128L160 112L144 112L144 96L128 96L128 80L112 80L112 48L128 48L128 64L144 64L144 48L128 48L128 32L112 32L112 16L96 16L96 0L80 0z"/>
<path style="fill:#ffffff; stroke:none;" d="M64 144L64 176L112 176L112 144L64 144z"/>
</svg>
