<?xml version="1.0" standalone="yes"?>
<svg width="192" height="192">
<path style="fill:#000000; stroke:none;" d="M64 0L64 16L32 16L32 32L16 32L16 64L0 64L0 128L16 128L16 160L32 160L32 176L64 176L64 192L128 192L128 176L160 176L160 160L176 160L176 128L192 128L192 64L176 64L176 32L160 32L160 16L128 16L128 0L64 0z"/>
<path style="fill:#ffffff; stroke:none;" d="M112 16L112 48L96 48L96 80L144 80L144 32L128 32L128 16L112 16M32 32L32 64L48 64L48 80L32 80L32 96L16 96L16 128L64 128L64 176L112 176L112 160L128 160L128 144L160 144L160 128L176 128L176 96L112 96L112 128L64 128L64 96L48 96L48 80L80 80L80 48L64 48L64 32L32 32z"/>
<path style="fill:#000000; stroke:none;" d="M112 128L112 144L128 144L128 128L112 128z"/>
</svg>
