<?xml version="1.0" standalone="yes"?>
<svg width="192" height="192">
<path style="fill:#000000; stroke:none;" d="M32 48L32 64L16 64L16 80L0 80L0 128L16 128L16 144L32 144L32 160L64 160L64 144L80 144L80 64L64 64L64 48L32 48M128 48L128 64L112 64L112 144L128 144L128 160L160 160L160 144L176 144L176 128L192 128L192 80L176 80L176 64L160 64L160 48L128 48z"/>
<path style="fill:#ffffff; stroke:none;" d="M32 64L32 80L16 80L16 128L32 128L32 144L64 144L64 128L48 128L48 96L64 96L64 64L32 64M128 64L128 96L144 96L144 128L128 128L128 144L160 144L160 128L176 128L176 80L160 80L160 64L128 64z"/>
</svg>
