<?xml version="1.0" standalone="yes"?>
<svg width="192" height="192">
<path style="fill:#ff1500; stroke:none;" d="M0 0L0 16L192 16L192 0L0 0M32 32L32 48L16 48L16 144L32 144L32 160L64 160L64 144L80 144L80 48L64 48L64 32L32 32M112 32L112 160L128 160L128 128L144 128L144 144L160 144L160 160L176 160L176 144L160 144L160 128L144 128L144 112L128 112L128 80L144 80L144 64L160 64L160 48L176 48L176 32L160 32L160 48L144 48L144 64L128 64L128 32L112 32M64 48L64 144L32 144L32 48L64 48M0 176L0 192L192 192L192 176L0 176z"/>
</svg>
