<?xml version="1.0" standalone="yes"?>
<svg width="192" height="192">
<path style="fill:#000000; stroke:none;" d="M64 0L64 16L32 16L32 32L16 32L16 48L0 48L0 128L16 128L16 160L32 160L32 176L64 176L64 192L128 192L128 176L160 176L160 160L176 160L176 128L192 128L192 64L176 64L176 32L160 32L160 16L128 16L128 0L64 0z"/>
<path style="fill:#ffffff; stroke:none;" d="M64 16L64 48L48 48L48 32L32 32L32 48L16 48L16 128L32 128L32 160L48 160L48 144L64 144L64 176L128 176L128 144L144 144L144 160L160 160L160 128L176 128L176 64L160 64L160 32L144 32L144 48L128 48L128 16L64 16z"/>
<path style="fill:#000000; stroke:none;" d="M64 48L64 144L80 144L80 48L64 48M112 48L112 144L128 144L128 48L112 48z"/>
</svg>
