<?xml version="1.0" standalone="yes"?>
<svg width="192" height="192">
<path style="fill:#ff1500; stroke:none;" d="M96 0L96 80L80 80L80 96L96 96L96 80L112 80L112 32L128 32L128 64L144 64L144 32L128 32L128 16L112 16L112 0L96 0M32 80L32 160L16 160L16 176L0 176L0 192L16 192L16 176L32 176L32 160L48 160L48 112L64 112L64 160L80 160L80 112L64 112L64 96L48 96L48 80L32 80M144 96L144 160L128 160L128 176L112 176L112 192L128 192L128 176L144 176L144 160L160 160L160 128L176 128L176 160L192 160L192 128L176 128L176 112L160 112L160 96L144 96z"/>
</svg>
