<?xml version="1.0" standalone="yes"?>
<svg width="192" height="192">
<path style="fill:#ff1500; stroke:none;" d="M16 0L16 16L0 16L0 176L16 176L16 192L176 192L176 176L192 176L192 16L176 16L176 0L16 0M176 16L176 176L112 176L112 144L144 144L144 128L112 128L112 112L144 112L144 96L112 96L112 80L96 80L96 96L64 96L64 112L96 112L96 128L64 128L64 144L96 144L96 176L16 176L16 16L176 16M48 32L48 48L64 48L64 64L80 64L80 80L96 80L96 64L80 64L80 48L64 48L64 32L48 32M144 32L144 48L128 48L128 64L112 64L112 80L128 80L128 64L144 64L144 48L160 48L160 32L144 32z"/>
</svg>
