<?xml version="1.0" standalone="yes"?>
<svg width="192" height="192">
<path style="fill:#f9af14; stroke:none;" d="M88 0L88 32L104 32L104 0L88 0M8 16L8 32L24 32L24 48L40 48L40 32L24 32L24 16L8 16M168 16L168 32L152 32L152 48L168 48L168 32L184 32L184 16L168 16M72 48L72 64L56 64L56 112L72 112L72 128L120 128L120 112L136 112L136 64L120 64L120 48L72 48z"/>
<path style="fill:#ffffff; stroke:none;" d="M72 64L72 112L120 112L120 64L72 64z"/>
<path style="fill:#f9af14; stroke:none;" d="M8 80L8 96L40 96L40 80L8 80M152 80L152 96L184 96L184 80L152 80M72 144L72 192L120 192L120 144L72 144z"/>
</svg>
