<?xml version="1.0" standalone="yes"?>
<svg width="192" height="192">
<path style="fill:#1442ff; stroke:none;" d="M64 0L64 16L32 16L32 32L16 32L16 64L0 64L0 128L16 128L16 160L32 160L32 176L64 176L64 192L128 192L128 176L160 176L160 160L176 160L176 128L192 128L192 64L176 64L176 32L160 32L160 16L128 16L128 0L64 0z"/>
<path style="fill:#ffffff; stroke:none;" d="M64 16L64 32L32 32L32 64L16 64L16 128L32 128L32 160L64 160L64 176L96 176L96 128L80 128L80 112L112 112L112 144L128 144L128 160L160 160L160 128L176 128L176 64L160 64L160 32L144 32L144 48L128 48L128 16L64 16z"/>
<path style="fill:#1442ff; stroke:none;" d="M112 48L112 64L80 64L80 80L64 80L64 112L80 112L80 80L112 80L112 112L128 112L128 80L112 80L112 64L128 64L128 48L112 48z"/>
</svg>
