<?xml version="1.0" standalone="yes"?>
<svg width="192" height="192">
<path style="fill:#000000; stroke:none;" d="M16 0L16 16L0 16L0 176L16 176L16 192L176 192L176 176L192 176L192 16L176 16L176 0L16 0z"/>
<path style="fill:#ffffff; stroke:none;" d="M16 16L16 176L176 176L176 16L16 16z"/>
<path style="fill:#000000; stroke:none;" d="M96 32L96 48L80 48L80 64L64 64L64 80L48 80L48 144L96 144L96 160L112 160L112 144L128 144L128 128L112 128L112 32L96 32z"/>
<path style="fill:#ffffff; stroke:none;" d="M80 64L80 80L64 80L64 128L96 128L96 64L80 64z"/>
</svg>
