<?xml version="1.0" standalone="yes"?>
<svg width="192" height="192">
<path style="fill:#f9af14; stroke:none;" d="M0 0L0 176L16 176L16 192L176 192L176 176L192 176L192 0L0 0z"/>
<path style="fill:#ffffff; stroke:none;" d="M16 16L16 176L64 176L64 160L128 160L128 176L176 176L176 16L128 16L128 32L64 32L64 16L16 16z"/>
<path style="fill:#f9af14; stroke:none;" d="M48 32L48 48L64 48L64 80L48 80L48 96L64 96L64 112L48 112L48 128L64 128L64 144L48 144L48 160L64 160L64 144L80 144L80 128L64 128L64 112L80 112L80 96L64 96L64 80L128 80L128 96L112 96L112 112L128 112L128 128L112 128L112 144L128 144L128 160L144 160L144 144L128 144L128 128L144 128L144 112L128 112L128 96L144 96L144 80L128 80L128 48L144 48L144 32L128 32L128 48L64 48L64 32L48 32z"/>
</svg>
