<?xml version="1.0" standalone="yes"?>
<svg width="192" height="192">
<path style="fill:#1442ff; stroke:none;" d="M80 0L80 16L96 16L96 0L80 0M32 16L32 32L48 32L48 16L32 16M128 16L128 32L144 32L144 16L128 16M64 32L64 48L48 48L48 64L32 64L32 112L48 112L48 128L64 128L64 144L112 144L112 128L128 128L128 160L144 160L144 176L160 176L160 192L176 192L176 176L192 176L192 160L176 160L176 144L160 144L160 128L128 128L128 112L144 112L144 64L128 64L128 48L112 48L112 32L64 32M112 48L112 64L128 64L128 112L112 112L112 128L64 128L64 112L48 112L48 64L64 64L64 48L112 48M0 80L0 96L16 96L16 80L0 80M16 144L16 160L32 160L32 144L16 144M160 144L160 160L176 160L176 176L160 176L160 160L144 160L144 144L160 144z"/>
</svg>
