<?xml version="1.0" standalone="yes"?>
<svg width="192" height="192">
<path style="fill:#000000; stroke:none;" d="M48 16L48 32L32 32L32 48L16 48L16 64L0 64L0 128L16 128L16 144L32 144L32 160L48 160L48 176L144 176L144 160L160 160L160 144L176 144L176 128L192 128L192 64L176 64L176 48L160 48L160 32L144 32L144 16L48 16z"/>
<path style="fill:#ffffff; stroke:none;" d="M48 32L48 48L32 48L32 64L16 64L16 128L32 128L32 144L48 144L48 160L112 160L112 144L128 144L128 128L144 128L144 64L128 64L128 48L112 48L112 32L48 32z"/>
<path style="fill:#000000; stroke:none;" d="M48 48L48 96L32 96L32 112L48 112L48 144L96 144L96 128L112 128L112 64L96 64L96 48L48 48z"/>
<path style="fill:#ffffff; stroke:none;" d="M64 64L64 96L80 96L80 112L64 112L64 128L96 128L96 64L64 64z"/>
</svg>
