<?xml version="1.0" standalone="yes"?>
<svg width="192" height="192">
<path style="fill:#ff1500; stroke:none;" d="M48 0L48 16L32 16L32 32L16 32L16 48L0 48L0 144L16 144L16 160L32 160L32 176L48 176L48 192L144 192L144 176L160 176L160 160L176 160L176 144L192 144L192 48L176 48L176 32L160 32L160 16L144 16L144 0L48 0z"/>
<path style="fill:#ffffff; stroke:none;" d="M48 16L48 32L32 32L32 48L16 48L16 144L32 144L32 160L48 160L48 176L144 176L144 160L160 160L160 144L176 144L176 48L160 48L160 32L144 32L144 16L48 16z"/>
<path style="fill:#ff1500; stroke:none;" d="M64 32L64 48L48 48L48 64L32 64L32 80L48 80L48 64L64 64L64 48L112 48L112 32L64 32M144 48L144 64L128 64L128 80L112 80L112 96L80 96L80 128L64 128L64 96L32 96L32 128L64 128L64 144L48 144L48 160L64 160L64 144L80 144L80 128L160 128L160 96L128 96L128 80L144 80L144 64L160 64L160 48L144 48z"/>
</svg>
