<?xml version="1.0" standalone="yes"?>
<svg width="192" height="192">
<path style="fill:#ff1500; stroke:none;" d="M32 32L32 48L16 48L16 64L0 64L0 144L32 144L32 128L48 128L48 144L64 144L64 160L176 160L176 144L192 144L192 112L176 112L176 96L192 96L192 48L176 48L176 32L32 32z"/>
<path style="fill:#ffffff; stroke:none;" d="M32 48L32 64L16 64L16 128L32 128L32 80L48 80L48 128L64 128L64 96L80 96L80 64L96 64L96 96L128 96L128 64L144 64L144 96L176 96L176 48L32 48M80 112L80 144L176 144L176 112L80 112z"/>
</svg>
