<?xml version="1.0" standalone="yes"?>
<svg width="192" height="192">
<path style="fill:#ff1500; stroke:none;" d="M96 0L96 32L112 32L112 0L96 0M16 16L16 32L32 32L32 48L48 48L48 32L32 32L32 16L16 16M160 16L160 32L144 32L144 48L160 48L160 32L176 32L176 16L160 16M64 48L64 64L48 64L48 128L64 128L64 144L128 144L128 128L144 128L144 64L128 64L128 48L64 48M0 80L0 96L32 96L32 80L0 80M160 96L160 112L192 112L192 96L160 96M32 144L32 160L16 160L16 176L32 176L32 160L48 160L48 144L32 144M144 144L144 160L160 160L160 176L176 176L176 160L160 160L160 144L144 144M80 160L80 192L96 192L96 160L80 160z"/>
</svg>
