<?xml version="1.0" standalone="yes"?>
<svg width="192" height="192">
<path style="fill:#f9af14; stroke:none;" d="M32 0L32 32L48 32L48 48L64 48L64 64L48 64L48 80L32 80L32 96L16 96L16 144L32 144L32 160L48 160L48 176L64 176L64 192L128 192L128 176L144 176L144 160L160 160L160 144L176 144L176 96L160 96L160 80L144 80L144 64L128 64L128 48L144 48L144 32L160 32L160 0L144 0L144 32L128 32L128 48L64 48L64 32L48 32L48 0L32 0M128 64L128 80L144 80L144 96L160 96L160 144L144 144L144 160L128 160L128 176L64 176L64 160L48 160L48 144L32 144L32 96L48 96L48 80L64 80L64 64L128 64M128 128L128 144L144 144L144 128L128 128z"/>
</svg>
