<?xml version="1.0" standalone="yes"?>
<svg width="192" height="192">
<path style="fill:#ff1500; stroke:none;" d="M80 0L80 16L64 16L64 48L48 48L48 96L32 96L32 112L16 112L16 128L0 128L0 160L16 160L16 176L32 176L32 192L64 192L64 176L80 176L80 160L96 160L96 128L80 128L80 112L64 112L64 48L80 48L80 16L112 16L112 48L128 48L128 176L144 176L144 192L176 192L176 176L192 176L192 144L176 144L176 176L144 176L144 48L128 48L128 16L112 16L112 0L80 0M64 112L64 128L80 128L80 160L64 160L64 176L32 176L32 160L16 160L16 128L32 128L32 112L64 112z"/>
</svg>
