<?xml version="1.0" standalone="yes"?>
<svg width="192" height="192">
<path style="fill:#000000; stroke:none;" d="M0 0L0 16L192 16L192 0L0 0M0 48L0 64L32 64L32 80L16 80L16 128L32 128L32 144L64 144L64 128L80 128L80 80L64 80L64 64L128 64L128 80L112 80L112 128L128 128L128 144L160 144L160 128L176 128L176 80L160 80L160 64L192 64L192 48L160 48L160 64L128 64L128 48L64 48L64 64L32 64L32 48L0 48M64 80L64 128L32 128L32 80L64 80M160 80L160 128L128 128L128 80L160 80M0 176L0 192L192 192L192 176L0 176z"/>
</svg>
