<?xml version="1.0" standalone="yes"?>
<svg width="192" height="192">
<path style="fill:#f9af14; stroke:none;" d="M32 64L32 112L16 112L16 128L0 128L0 176L16 176L16 192L64 192L64 160L80 160L80 144L128 144L128 128L144 128L144 112L160 112L160 80L176 80L176 176L96 176L96 192L176 192L176 176L192 176L192 80L176 80L176 64L32 64M64 80L64 96L48 96L48 80L64 80M96 80L96 96L80 96L80 80L96 80M144 80L144 112L128 112L128 128L80 128L80 144L64 144L64 160L48 160L48 176L16 176L16 128L32 128L32 112L112 112L112 80L144 80z"/>
</svg>
