<?xml version="1.0" standalone="yes"?>
<svg width="192" height="192">
<path style="fill:#cb6dff; stroke:none;" d="M128 0L128 16L112 16L112 32L96 32L96 64L32 64L32 48L80 48L80 32L16 32L16 64L32 64L32 80L48 80L48 96L64 96L64 112L80 112L80 128L96 128L96 176L64 176L64 192L144 192L144 176L112 176L112 128L128 128L128 112L144 112L144 96L160 96L160 80L176 80L176 64L192 64L192 32L128 32L128 16L160 16L160 0L128 0z"/>
<path style="fill:#ffffff; stroke:none;" d="M112 32L112 64L176 64L176 48L128 48L128 32L112 32M80 80L80 112L112 112L112 80L80 80z"/>
</svg>
