<?xml version="1.0" standalone="yes"?>
<svg width="192" height="192">
<path style="fill:#000000; stroke:none;" d="M64 0L64 16L32 16L32 32L16 32L16 48L32 48L32 64L48 64L48 96L64 96L64 112L16 112L16 128L0 128L0 160L16 160L16 176L32 176L32 192L144 192L144 176L160 176L160 160L176 160L176 144L192 144L192 112L176 112L176 96L144 96L144 16L160 16L160 0L64 0z"/>
<path style="fill:#ffffff; stroke:none;" d="M128 96L128 128L112 128L112 144L64 144L64 128L48 128L48 144L64 144L64 160L112 160L112 144L128 144L128 128L144 128L144 96L128 96z"/>
</svg>
