<?xml version="1.0" standalone="yes"?>
<svg width="192" height="192">
<path style="fill:#000000; stroke:none;" d="M64 0L64 16L32 16L32 32L16 32L16 64L0 64L0 128L16 128L16 160L32 160L32 176L64 176L64 192L128 192L128 176L160 176L160 160L176 160L176 128L192 128L192 64L176 64L176 32L160 32L160 16L128 16L128 0L64 0z"/>
<path style="fill:#ffffff; stroke:none;" d="M144 32L144 80L128 80L128 112L112 112L112 128L80 128L80 144L32 144L32 160L64 160L64 176L128 176L128 160L160 160L160 128L176 128L176 64L160 64L160 32L144 32z"/>
</svg>
