<?xml version="1.0" standalone="yes"?>
<svg width="192" height="192">
<path style="fill:#8edd07; stroke:none;" d="M48 0L48 16L32 16L32 144L64 144L64 160L48 160L48 176L32 176L32 192L48 192L48 176L64 176L64 160L80 160L80 144L112 144L112 160L128 160L128 176L144 176L144 192L160 192L160 176L144 176L144 160L128 160L128 144L160 144L160 16L144 16L144 0L48 0z"/>
<path style="fill:#ffffff; stroke:none;" d="M64 16L64 32L128 32L128 16L64 16M48 48L48 80L144 80L144 48L48 48M64 112L64 128L80 128L80 112L64 112M112 112L112 128L128 128L128 112L112 112z"/>
</svg>
