<?xml version="1.0" standalone="yes"?>
<svg width="192" height="192">
<path style="fill:#f9af14; stroke:none;" d="M32 16L32 144L48 144L48 160L32 160L32 192L144 192L144 176L160 176L160 160L176 160L176 112L160 112L160 96L144 96L144 16L96 16L96 80L80 80L80 16L32 16z"/>
<path style="fill:#ffffff; stroke:none;" d="M48 32L48 144L64 144L64 160L48 160L48 176L144 176L144 160L160 160L160 128L144 128L144 112L128 112L128 96L112 96L112 80L128 80L128 32L112 32L112 80L96 80L96 96L64 96L64 32L48 32z"/>
<path style="fill:#f9af14; stroke:none;" d="M96 96L96 112L80 112L80 128L64 128L64 144L80 144L80 128L96 128L96 144L112 144L112 128L128 128L128 112L112 112L112 96L96 96z"/>
<path style="fill:#ffffff; stroke:none;" d="M96 112L96 128L112 128L112 112L96 112z"/>
</svg>
