<?xml version="1.0" standalone="yes"?>
<svg width="192" height="192">
<path style="fill:#1442ff; stroke:none;" d="M32 0L32 48L48 48L48 80L64 80L64 96L80 96L80 128L64 128L64 144L16 144L16 192L64 192L64 144L80 144L80 128L112 128L112 144L128 144L128 192L176 192L176 144L128 144L128 128L112 128L112 96L128 96L128 80L144 80L144 48L160 48L160 0L144 0L144 32L128 32L128 64L112 64L112 96L80 96L80 64L64 64L64 32L48 32L48 0L32 0z"/>
<path style="fill:#ffffff; stroke:none;" d="M32 160L32 176L48 176L48 160L32 160M144 160L144 176L160 176L160 160L144 160z"/>
</svg>
