<?xml version="1.0" standalone="yes"?>
<svg width="192" height="192">
<path style="fill:#1442ff; stroke:none;" d="M80 0L80 16L48 16L48 32L0 32L0 48L192 48L192 32L144 32L144 16L112 16L112 0L80 0M16 64L16 80L0 80L0 144L16 144L16 160L48 160L48 144L16 144L16 80L48 80L48 64L16 64M64 64L64 128L80 128L80 160L96 160L96 128L112 128L112 64L96 64L96 128L80 128L80 64L64 64M144 64L144 80L128 80L128 96L144 96L144 112L160 112L160 144L128 144L128 160L160 160L160 144L176 144L176 112L160 112L160 96L144 96L144 80L176 80L176 64L144 64M0 176L0 192L192 192L192 176L0 176z"/>
</svg>
