<?xml version="1.0" standalone="yes"?>
<svg width="192" height="192">
<path style="fill:#ff1500; stroke:none;" d="M160 0L160 16L176 16L176 32L192 32L192 16L176 16L176 0L160 0M144 32L144 48L160 48L160 64L176 64L176 48L160 48L160 32L144 32M64 64L64 80L48 80L48 128L64 128L64 144L80 144L80 160L96 160L96 176L112 176L112 160L128 160L128 144L144 144L144 128L160 128L160 80L144 80L144 64L112 64L112 80L96 80L96 64L64 64M32 144L32 160L48 160L48 176L64 176L64 160L48 160L48 144L32 144M0 160L0 176L16 176L16 192L32 192L32 176L16 176L16 160L0 160z"/>
</svg>
